<?xml version="1.0" encoding="utf-8"?>
<!-- Generator: Adobe Illustrator 25.0.0, SVG Export Plug-In . SVG Version: 6.00 Build 0)  -->
<svg version="1.1" id="Camada_1" xmlns="http://www.w3.org/2000/svg" xmlns:xlink="http://www.w3.org/1999/xlink" x="0px" y="0px"
	 viewBox="0 0 1080 1920" style="enable-background:new 0 0 1080 1920;" xml:space="preserve">
<style type="text/css">
	.st0{display:none;}
	.st1{display:inline;fill:#1B1464;}
	.st2{display:inline;}
	.st3{fill:url(#SVGID_1_);}
	.st4{opacity:0.6;}
	.st5{fill:url(#SVGID_2_);}
	.st6{fill:#00FFFF;}
	.st7{fill:#CCCCCC;}
	.st8{fill:#29ABE2;}
	.st9{fill:#2E3192;}
	.st10{fill:url(#SVGID_3_);}
	.st11{fill:#00FF00;}
	.st12{fill:#FFFFFF;}
	.st13{fill:#666666;}
</style>
<g class="st0">
	<rect x="0.5" y="0.5" class="st1" width="1079" height="1919"/>
	<path class="st2" d="M1079,1v1918H1V1H1079 M1080,0H0v1920h1080V0L1080,0z"/>
</g>
<g>
	<linearGradient id="SVGID_1_" gradientUnits="userSpaceOnUse" x1="44.0381" y1="-19.6826" x2="1053.4098" y2="1974.1477">
		<stop  offset="0" style="stop-color:#000059"/>
		<stop  offset="1" style="stop-color:#000000"/>
	</linearGradient>
	<rect class="st3" width="1080" height="1920"/>
</g>
<g class="st4">
	<linearGradient id="SVGID_2_" gradientUnits="userSpaceOnUse" x1="-36.9278" y1="720.5549" x2="166.7461" y2="1122.8759">
		<stop  offset="0" style="stop-color:#FFFFFF"/>
		<stop  offset="0" style="stop-color:#080055"/>
		<stop  offset="1" style="stop-color:#000000"/>
	</linearGradient>
	<path class="st5" d="M234.67,936C234.67,806.4,129.6,701.33,0,701.33v469.33C129.6,1170.67,234.67,1065.6,234.67,936z"/>
</g>
<g>
	<circle class="st6" cx="333" cy="403.67" r="24"/>
</g>
<g>
	<circle class="st7" cx="714.33" cy="834.33" r="24"/>
</g>
<g>
	<circle class="st8" cx="879.67" cy="629.89" r="16.97"/>
</g>
<g>
	<circle class="st9" cx="786.9" cy="571.03" r="8.49"/>
</g>
<g>
	<linearGradient id="SVGID_3_" gradientUnits="userSpaceOnUse" x1="701.0114" y1="-13.9567" x2="1116.28" y2="212.2162">
		<stop  offset="0" style="stop-color:#040046;stop-opacity:0.6"/>
		<stop  offset="0.315" style="stop-color:#030033;stop-opacity:0.7287"/>
		<stop  offset="0.9505" style="stop-color:#000002;stop-opacity:0.9884"/>
		<stop  offset="0.9789" style="stop-color:#000000"/>
	</linearGradient>
	<path class="st10" d="M814.07,160.26c88.51,0,160.26-71.75,160.26-160.26H653.81C653.81,88.51,725.56,160.26,814.07,160.26z"/>
</g>
<g>
	<circle class="st11" cx="820.84" cy="718.3" r="16.97"/>
</g>
<g>
	<circle class="st12" cx="926.04" cy="815.37" r="16.97"/>
</g>
<g>
	<g>
		<path class="st12" d="M184.95,154.68c-0.33-0.33-0.93-0.76-1.79-1.3c-0.87-0.54-1.92-1.09-3.17-1.65
			c-1.24-0.56-2.59-1.03-4.04-1.41c-1.45-0.37-2.93-0.56-4.43-0.56c-2.63,0-4.61,0.48-5.94,1.44c-1.34,0.96-2,2.34-2,4.16
			c0,1.35,0.42,2.43,1.27,3.22c0.84,0.79,2.11,1.47,3.8,2.03c1.69,0.56,3.8,1.17,6.33,1.82c3.28,0.79,6.13,1.76,8.55,2.9
			c2.41,1.14,4.27,2.64,5.56,4.48c1.29,1.84,1.93,4.3,1.93,7.38c0,2.61-0.49,4.85-1.48,6.72c-0.98,1.87-2.33,3.39-4.04,4.58
			c-1.71,1.19-3.68,2.05-5.91,2.59c-2.23,0.54-4.58,0.8-7.07,0.8c-2.49,0-4.97-0.26-7.45-0.77c-2.49-0.52-4.87-1.25-7.14-2.22
			c-2.27-0.96-4.4-2.12-6.36-3.48l4.29-8.37c0.42,0.42,1.17,0.97,2.25,1.65c1.08,0.68,2.39,1.36,3.94,2.04
			c1.55,0.68,3.24,1.25,5.06,1.72c1.83,0.47,3.68,0.7,5.56,0.7c2.67,0,4.67-0.43,5.98-1.29c1.31-0.86,1.97-2.12,1.97-3.79
			c0-1.49-0.53-2.67-1.58-3.54c-1.05-0.86-2.54-1.61-4.47-2.24c-1.92-0.63-4.2-1.29-6.82-2c-3.19-0.89-5.83-1.89-7.91-3.01
			c-2.09-1.12-3.66-2.51-4.71-4.17c-1.06-1.66-1.58-3.75-1.58-6.27c0-3.41,0.82-6.27,2.46-8.58c1.64-2.31,3.84-4.06,6.61-5.25
			c2.77-1.19,5.84-1.79,9.21-1.79c2.34,0,4.56,0.26,6.65,0.77c2.09,0.52,4.04,1.2,5.87,2.04c1.83,0.84,3.47,1.76,4.92,2.74
			L184.95,154.68z"/>
		<path class="st12" d="M198.18,198.71c0.84,0.19,1.63,0.34,2.36,0.46c0.73,0.12,1.35,0.2,1.86,0.25c0.89,0,1.63-0.22,2.22-0.66
			c0.59-0.44,1.16-1.23,1.72-2.36c0.56-1.13,1.15-2.72,1.76-4.75l-14.56-36.6h9.78l9.92,27.03l8.72-27.03h9l-15.47,43.87
			c-0.56,1.63-1.42,3.11-2.57,4.44c-1.15,1.33-2.57,2.38-4.25,3.15c-1.69,0.77-3.61,1.15-5.77,1.15c-0.75,0-1.5-0.06-2.25-0.18
			c-0.75-0.12-1.57-0.34-2.46-0.67V198.71z"/>
		<path class="st12" d="M249.66,192.24c-3.14,0-6.15-0.52-9.04-1.55c-2.88-1.03-5.33-2.56-7.35-4.57l3.45-6.12
			c2.16,1.78,4.29,3.09,6.4,3.94c2.11,0.84,4.17,1.27,6.19,1.27c1.83,0,3.29-0.32,4.4-0.95c1.1-0.63,1.65-1.58,1.65-2.85
			c0-0.93-0.31-1.63-0.91-2.12c-0.61-0.49-1.49-0.9-2.64-1.25c-1.15-0.35-2.54-0.75-4.18-1.21c-2.72-0.83-4.98-1.68-6.79-2.53
			c-1.81-0.86-3.18-1.92-4.11-3.19c-0.94-1.27-1.41-2.9-1.41-4.89c0-2.41,0.62-4.48,1.86-6.21c1.24-1.74,2.98-3.09,5.2-4.06
			c2.23-0.97,4.84-1.46,7.84-1.46c2.63,0,5.11,0.41,7.46,1.23c2.34,0.82,4.48,2.15,6.4,3.97l-3.87,6.05
			c-1.83-1.5-3.59-2.59-5.27-3.27c-1.69-0.68-3.4-1.02-5.13-1.02c-0.98,0-1.91,0.12-2.78,0.35c-0.87,0.23-1.57,0.61-2.11,1.14
			c-0.54,0.53-0.81,1.28-0.81,2.25c0,0.83,0.25,1.5,0.74,2.01c0.49,0.51,1.24,0.95,2.25,1.31c1.01,0.37,2.24,0.78,3.69,1.25
			c2.95,0.83,5.44,1.67,7.46,2.53c2.02,0.85,3.55,1.93,4.61,3.22c1.05,1.29,1.58,3.04,1.58,5.26c0,3.6-1.34,6.42-4.01,8.45
			C257.74,191.23,254.16,192.24,249.66,192.24z"/>
		<path class="st12" d="M292.91,189.71c-0.84,0.38-1.82,0.76-2.92,1.16c-1.1,0.4-2.3,0.73-3.59,0.98c-1.29,0.26-2.59,0.39-3.9,0.39
			c-1.78,0-3.4-0.3-4.85-0.91c-1.45-0.6-2.61-1.57-3.48-2.89c-0.87-1.32-1.3-3.05-1.3-5.19v-21.04h-4.78v-7.17h4.78v-11.96h9.49
			v11.96h7.74v7.17h-7.74v17.84c0.05,1.25,0.4,2.17,1.05,2.74c0.66,0.58,1.5,0.87,2.53,0.87c0.94,0,1.87-0.18,2.81-0.53
			c0.94-0.35,1.71-0.67,2.32-0.95L292.91,189.71z"/>
		<path class="st12" d="M314.92,192.24c-2.95,0-5.63-0.5-8.02-1.49c-2.39-1-4.43-2.37-6.12-4.1c-1.69-1.74-2.98-3.72-3.87-5.95
			c-0.89-2.23-1.34-4.61-1.34-7.16c0-3.43,0.78-6.6,2.36-9.49c1.57-2.9,3.8-5.22,6.68-6.96c2.88-1.74,6.34-2.61,10.37-2.61
			c3.98,0,7.41,0.87,10.27,2.61c2.86,1.74,5.06,4.03,6.61,6.86c1.55,2.83,2.32,5.92,2.32,9.26c0,0.6-0.02,1.17-0.07,1.71
			c-0.05,0.53-0.09,0.99-0.14,1.36h-28.41c0.14,1.93,0.67,3.56,1.58,4.92c0.91,1.35,2.09,2.39,3.52,3.13
			c1.43,0.73,2.94,1.1,4.54,1.1c1.92,0,3.72-0.46,5.38-1.37c1.66-0.91,2.8-2.15,3.41-3.69l8.02,2.25c-0.84,1.88-2.09,3.54-3.73,4.99
			c-1.64,1.45-3.59,2.59-5.84,3.41C320.19,191.83,317.69,192.24,314.92,192.24z M305.28,170.37h19.27
			c-0.19-1.83-0.72-3.43-1.58-4.78c-0.87-1.35-2-2.41-3.41-3.16c-1.41-0.76-2.98-1.13-4.71-1.13c-1.69,0-3.22,0.38-4.61,1.13
			c-1.38,0.76-2.51,1.81-3.38,3.16C306,166.94,305.47,168.53,305.28,170.37z"/>
		<path class="st12" d="M397.21,191.54h-9.42v-20.38c0-2.91-0.5-5.04-1.51-6.38c-1.01-1.34-2.4-2.01-4.18-2.01
			c-1.88,0-3.63,0.71-5.27,2.11c-1.64,1.41-2.81,3.22-3.52,5.44v21.21h-9.49v-20.38c0-2.91-0.49-5.04-1.48-6.38
			c-0.98-1.34-2.37-2.01-4.15-2.01c-1.83,0-3.59,0.69-5.27,2.06c-1.69,1.37-2.88,3.18-3.59,5.43v21.28h-9.35v-36.5h8.51v6.81
			c1.41-2.36,3.29-4.18,5.66-5.46c2.37-1.27,5.05-1.91,8.05-1.91c3.05,0,5.43,0.74,7.14,2.23c1.71,1.48,2.8,3.32,3.27,5.49
			c1.5-2.5,3.41-4.42,5.73-5.74c2.32-1.32,4.96-1.98,7.91-1.98c2.25,0,4.09,0.41,5.52,1.22c1.43,0.81,2.54,1.9,3.34,3.27
			c0.8,1.37,1.35,2.91,1.65,4.62c0.3,1.72,0.46,3.43,0.46,5.15V191.54z"/>
		<path class="st12" d="M195.43,271.13c0,2.77-0.73,5.1-2.18,7c-1.45,1.9-3.41,3.34-5.87,4.33c-2.46,0.98-5.15,1.48-8.05,1.48H155.2
			V234h26.73c2.34,0,4.37,0.62,6.08,1.86c1.71,1.24,3.02,2.84,3.94,4.78c0.91,1.95,1.37,3.97,1.37,6.08c0,2.39-0.61,4.65-1.83,6.79
			c-1.22,2.13-3,3.74-5.35,4.82c2.86,0.84,5.12,2.37,6.79,4.57C194.6,265.11,195.43,267.85,195.43,271.13z M164.91,242.3v12.59
			h12.94c1.08,0,2.06-0.26,2.95-0.77c0.89-0.52,1.61-1.24,2.15-2.18c0.54-0.94,0.81-2.04,0.81-3.31c0-1.31-0.25-2.43-0.74-3.34
			c-0.49-0.91-1.15-1.64-1.97-2.18c-0.82-0.54-1.75-0.81-2.78-0.81H164.91z M185.66,269.23c0-1.27-0.26-2.4-0.77-3.41
			c-0.52-1.01-1.21-1.82-2.07-2.43c-0.87-0.61-1.86-0.91-2.99-0.91h-14.91v13.22h14.42c1.17,0,2.24-0.29,3.2-0.88
			c0.96-0.59,1.72-1.37,2.29-2.36C185.38,271.48,185.66,270.41,185.66,269.23z"/>
		<path class="st12" d="M224.13,255.24c-2.91,0.05-5.49,0.6-7.74,1.65c-2.25,1.06-3.89,2.61-4.92,4.68v22.36h-9.35v-36.5h8.65v7.53
			c1.31-2.53,2.99-4.52,5.03-5.98c2.04-1.45,4.18-2.25,6.44-2.39c0.47,0.05,0.84,0.06,1.13,0.04c0.28-0.02,0.54,0.01,0.77,0.11
			V255.24z"/>
		<path class="st12" d="M246.35,284.64c-3,0-5.69-0.51-8.05-1.53c-2.37-1.02-4.4-2.41-6.08-4.17c-1.69-1.76-2.97-3.77-3.83-6.02
			c-0.87-2.25-1.3-4.62-1.3-7.13c0-2.6,0.43-5.03,1.3-7.3c0.87-2.27,2.13-4.28,3.8-6.02c1.66-1.74,3.69-3.11,6.08-4.1
			c2.39-1,5.06-1.5,8.02-1.5c3.05,0,5.75,0.5,8.12,1.5c2.37,1,4.4,2.37,6.08,4.1c1.69,1.74,2.98,3.74,3.87,6.02
			c0.89,2.27,1.34,4.71,1.34,7.3c0,2.5-0.45,4.88-1.34,7.13c-0.89,2.25-2.18,4.25-3.87,6.02c-1.69,1.76-3.72,3.15-6.08,4.17
			C252.04,284.12,249.35,284.64,246.35,284.64z M236.72,265.79c0,2.07,0.42,3.93,1.27,5.59c0.84,1.66,2,2.94,3.48,3.86
			s3.11,1.38,4.89,1.38c1.78,0,3.4-0.47,4.85-1.41c1.45-0.94,2.61-2.23,3.48-3.86c0.87-1.63,1.3-3.51,1.3-5.62
			c0-2.07-0.43-3.92-1.3-5.55c-0.87-1.63-2.03-2.92-3.48-3.86c-1.45-0.94-3.09-1.41-4.92-1.41c-1.78,0-3.4,0.47-4.85,1.41
			c-1.45,0.94-2.6,2.23-3.45,3.86C237.14,261.8,236.72,263.67,236.72,265.79z"/>
		<path class="st12" d="M297.13,283.93l-10.76-15.77l-5.06,4.88v10.89h-9.35v-51.34h9.35v31.24l14.91-16.4h9.99l-13.71,15.49
			l14.7,21.01H297.13z"/>
		<path class="st12" d="M328.28,284.64c-2.95,0-5.63-0.5-8.02-1.49c-2.39-1-4.43-2.37-6.12-4.1c-1.69-1.74-2.98-3.72-3.87-5.95
			c-0.89-2.23-1.34-4.61-1.34-7.16c0-3.43,0.78-6.6,2.36-9.49c1.57-2.9,3.8-5.22,6.68-6.96c2.88-1.74,6.34-2.61,10.37-2.61
			c3.98,0,7.41,0.87,10.27,2.61c2.86,1.74,5.06,4.03,6.61,6.86c1.55,2.83,2.32,5.92,2.32,9.26c0,0.6-0.02,1.17-0.07,1.71
			c-0.05,0.53-0.09,0.99-0.14,1.36h-28.41c0.14,1.93,0.67,3.56,1.58,4.92c0.91,1.35,2.09,2.39,3.52,3.13
			c1.43,0.73,2.94,1.1,4.54,1.1c1.92,0,3.72-0.46,5.38-1.37c1.66-0.91,2.8-2.15,3.41-3.69l8.02,2.25c-0.84,1.88-2.09,3.54-3.73,4.99
			c-1.64,1.45-3.59,2.59-5.84,3.41C333.56,284.22,331.05,284.64,328.28,284.64z M318.65,262.76h19.27
			c-0.19-1.83-0.72-3.43-1.58-4.78c-0.87-1.35-2-2.41-3.41-3.16c-1.41-0.76-2.98-1.13-4.71-1.13c-1.69,0-3.22,0.38-4.61,1.13
			c-1.38,0.76-2.51,1.81-3.38,3.16C319.36,259.34,318.83,260.93,318.65,262.76z"/>
		<path class="st12" d="M375.33,255.24c-2.91,0.05-5.49,0.6-7.74,1.65c-2.25,1.06-3.89,2.61-4.92,4.68v22.36h-9.35v-36.5h8.65v7.53
			c1.31-2.53,2.99-4.52,5.03-5.98c2.04-1.45,4.18-2.25,6.44-2.39c0.47,0.05,0.84,0.06,1.13,0.04c0.28-0.02,0.54,0.01,0.77,0.11
			V255.24z"/>
	</g>
</g>
<g>
	<g>
		<path class="st13" d="M0,64.94v33.94c9.37,0,16.97-7.6,16.97-16.97C16.97,72.54,9.37,64.94,0,64.94z"/>
	</g>
</g>
</svg>
